<?xml version="1.0" encoding="utf-8"?>
<!-- Generator: Adobe Illustrator 26.3.1, SVG Export Plug-In . SVG Version: 6.00 Build 0)  -->
<svg version="1.1" id="Layer_2" xmlns="http://www.w3.org/2000/svg" xmlns:xlink="http://www.w3.org/1999/xlink" x="0px" y="0px"
	 viewBox="0 0 1137.5 80.5" style="enable-background:new 0 0 1137.5 80.5;" xml:space="preserve">
<style type="text/css">
	.st0{fill:#A3EFD0;}
</style>
<g>
	<path class="st0" d="M1131.3,2.4h-9.5h-9.5h-4.7v4.7v4.7h-4.7V7.1V2.4h-4.7h-9.5h-9.5h-4.7v4.7v4.7h-9.5h-4.7v4.7v9.5h4.7v-9.5h9.5
		v9.5v4.7h4.7h9.5h9.5h4.7V16.6h4.7v9.5v4.7h4.7h9.5h9.5h4.7V7.1V2.4H1131.3z M1079.3,26.1v-9.5v-4.7V7.1h9.5v18.9H1079.3z
		 M1112.4,26.1v-9.5v-4.7V7.1h9.5v18.9H1112.4z"/>
	<g>
		<path class="st0" d="M77,2.4v37.8H39.1v37.8H1.3V2.4H77z M152.7,2.4v75.7c-18.9,0-56.8,0-75.7,0V40.3h37.8V2.4H152.7z"/>
		<path class="st0" d="M176.3,78.1V2.4H252v75.7H176.3z"/>
		<path class="st0" d="M861.3,78.1V2.4H937v75.7H861.3z"/>
		<path class="st0" d="M389.2,2.4v75.7c-33.7,0-79.8,0-113.5,0V2.4h37.8v37.8h37.8V2.4H389.2z"/>
		<path class="st0" d="M488.6,2.4v37.8h-37.8v37.8h-37.8V2.4H488.6z M564.3,2.4v75.7c-18.9,0-56.8,0-75.7,0V40.3h37.8V2.4H564.3z"/>
		<path class="st0" d="M1098.3,40.2v19h-19v19h-19V40.2H1098.3z M1136.2,40.2v37.9c-9.4,0-28.5,0-37.9,0v-19h19v-19H1136.2z"/>
		<path class="st0" d="M701.5,2.4v37.8h-37.8v37.8h-75.7V40.3h37.8V2.4H701.5z"/>
	</g>
	<path class="st0" d="M837.6,2.5v25.2h-37.5V78h-37.5V27.7h-37.5V2.5H837.6z"/>
	<path class="st0" d="M1036.7,2.4c0,16.5,0,59.6,0,75.6h-76.1V52.8H986V27.6h25.4V2.4H1036.7z"/>
</g>
</svg>
